<mxfile host="app.diagrams.net" agent="Mozilla/5.0 (X11; Linux x86_64) AppleWebKit/537.36 (KHTML, like Gecko) Chrome/129.0.0.0 Safari/537.36" version="24.7.14">
  <diagram name="Página-1" id="Pouexw9Fk_nc3GA-1pOM">
    <mxGraphModel dx="2394" dy="1767" grid="1" gridSize="10" guides="1" tooltips="1" connect="1" arrows="1" fold="1" page="1" pageScale="1" pageWidth="827" pageHeight="1169" math="0" shadow="0">
      <root>
        <mxCell id="0" />
        <mxCell id="1" parent="0" />
        <mxCell id="T0ui_UV1t-J_ydkfwZPT-9" style="edgeStyle=orthogonalEdgeStyle;rounded=0;orthogonalLoop=1;jettySize=auto;html=1;entryX=1;entryY=0.5;entryDx=0;entryDy=0;endArrow=none;endFill=0;" edge="1" parent="1" source="T0ui_UV1t-J_ydkfwZPT-1" target="T0ui_UV1t-J_ydkfwZPT-8">
          <mxGeometry relative="1" as="geometry">
            <Array as="points">
              <mxPoint x="160" y="60" />
            </Array>
          </mxGeometry>
        </mxCell>
        <mxCell id="T0ui_UV1t-J_ydkfwZPT-10" style="edgeStyle=orthogonalEdgeStyle;rounded=0;orthogonalLoop=1;jettySize=auto;html=1;endArrow=none;endFill=0;" edge="1" parent="1" source="T0ui_UV1t-J_ydkfwZPT-1" target="T0ui_UV1t-J_ydkfwZPT-7">
          <mxGeometry relative="1" as="geometry">
            <Array as="points">
              <mxPoint x="160" y="60" />
              <mxPoint x="20" y="60" />
            </Array>
          </mxGeometry>
        </mxCell>
        <mxCell id="T0ui_UV1t-J_ydkfwZPT-11" style="edgeStyle=orthogonalEdgeStyle;rounded=0;orthogonalLoop=1;jettySize=auto;html=1;entryX=0.5;entryY=1;entryDx=0;entryDy=0;endArrow=none;endFill=0;" edge="1" parent="1" source="T0ui_UV1t-J_ydkfwZPT-1" target="T0ui_UV1t-J_ydkfwZPT-5">
          <mxGeometry relative="1" as="geometry">
            <Array as="points">
              <mxPoint x="160" y="60" />
              <mxPoint x="130" y="60" />
            </Array>
          </mxGeometry>
        </mxCell>
        <mxCell id="T0ui_UV1t-J_ydkfwZPT-12" style="edgeStyle=orthogonalEdgeStyle;rounded=0;orthogonalLoop=1;jettySize=auto;html=1;endArrow=none;endFill=0;" edge="1" parent="1" source="T0ui_UV1t-J_ydkfwZPT-1" target="T0ui_UV1t-J_ydkfwZPT-6">
          <mxGeometry relative="1" as="geometry">
            <Array as="points">
              <mxPoint x="160" y="60" />
              <mxPoint x="240" y="60" />
            </Array>
          </mxGeometry>
        </mxCell>
        <mxCell id="T0ui_UV1t-J_ydkfwZPT-14" style="edgeStyle=orthogonalEdgeStyle;rounded=0;orthogonalLoop=1;jettySize=auto;html=1;entryX=1;entryY=0.5;entryDx=0;entryDy=0;endArrow=none;endFill=0;" edge="1" parent="1" source="T0ui_UV1t-J_ydkfwZPT-1" target="T0ui_UV1t-J_ydkfwZPT-13">
          <mxGeometry relative="1" as="geometry" />
        </mxCell>
        <mxCell id="T0ui_UV1t-J_ydkfwZPT-40" value="(0, n)" style="edgeStyle=orthogonalEdgeStyle;rounded=0;orthogonalLoop=1;jettySize=auto;html=1;entryX=0;entryY=0.5;entryDx=0;entryDy=0;endArrow=none;endFill=0;" edge="1" parent="1" source="T0ui_UV1t-J_ydkfwZPT-1" target="T0ui_UV1t-J_ydkfwZPT-39">
          <mxGeometry x="-0.6667" y="10" relative="1" as="geometry">
            <Array as="points">
              <mxPoint x="330" y="130" />
            </Array>
            <mxPoint as="offset" />
          </mxGeometry>
        </mxCell>
        <mxCell id="T0ui_UV1t-J_ydkfwZPT-1" value="Anotação" style="whiteSpace=wrap;html=1;align=center;" vertex="1" parent="1">
          <mxGeometry x="110" y="130" width="100" height="40" as="geometry" />
        </mxCell>
        <mxCell id="T0ui_UV1t-J_ydkfwZPT-28" style="edgeStyle=orthogonalEdgeStyle;rounded=0;orthogonalLoop=1;jettySize=auto;html=1;endArrow=none;endFill=0;" edge="1" parent="1" source="T0ui_UV1t-J_ydkfwZPT-2" target="T0ui_UV1t-J_ydkfwZPT-24">
          <mxGeometry relative="1" as="geometry" />
        </mxCell>
        <mxCell id="T0ui_UV1t-J_ydkfwZPT-29" style="edgeStyle=orthogonalEdgeStyle;rounded=0;orthogonalLoop=1;jettySize=auto;html=1;endArrow=none;endFill=0;" edge="1" parent="1" source="T0ui_UV1t-J_ydkfwZPT-2" target="T0ui_UV1t-J_ydkfwZPT-27">
          <mxGeometry relative="1" as="geometry" />
        </mxCell>
        <mxCell id="T0ui_UV1t-J_ydkfwZPT-31" style="edgeStyle=orthogonalEdgeStyle;rounded=0;orthogonalLoop=1;jettySize=auto;html=1;entryX=1;entryY=0.5;entryDx=0;entryDy=0;endArrow=none;endFill=0;" edge="1" parent="1" source="T0ui_UV1t-J_ydkfwZPT-2" target="T0ui_UV1t-J_ydkfwZPT-25">
          <mxGeometry relative="1" as="geometry" />
        </mxCell>
        <mxCell id="T0ui_UV1t-J_ydkfwZPT-32" style="edgeStyle=orthogonalEdgeStyle;rounded=0;orthogonalLoop=1;jettySize=auto;html=1;entryX=1;entryY=0.5;entryDx=0;entryDy=0;endArrow=none;endFill=0;" edge="1" parent="1" source="T0ui_UV1t-J_ydkfwZPT-2" target="T0ui_UV1t-J_ydkfwZPT-26">
          <mxGeometry relative="1" as="geometry" />
        </mxCell>
        <mxCell id="T0ui_UV1t-J_ydkfwZPT-2" value="Lembrete" style="whiteSpace=wrap;html=1;align=center;" vertex="1" parent="1">
          <mxGeometry x="110" y="380" width="100" height="40" as="geometry" />
        </mxCell>
        <mxCell id="T0ui_UV1t-J_ydkfwZPT-20" style="edgeStyle=orthogonalEdgeStyle;rounded=0;orthogonalLoop=1;jettySize=auto;html=1;entryX=0.5;entryY=1;entryDx=0;entryDy=0;endArrow=none;endFill=0;" edge="1" parent="1" source="T0ui_UV1t-J_ydkfwZPT-3" target="T0ui_UV1t-J_ydkfwZPT-17">
          <mxGeometry relative="1" as="geometry" />
        </mxCell>
        <mxCell id="T0ui_UV1t-J_ydkfwZPT-21" style="edgeStyle=orthogonalEdgeStyle;rounded=0;orthogonalLoop=1;jettySize=auto;html=1;entryX=0.5;entryY=1;entryDx=0;entryDy=0;endArrow=none;endFill=0;" edge="1" parent="1" source="T0ui_UV1t-J_ydkfwZPT-3" target="T0ui_UV1t-J_ydkfwZPT-18">
          <mxGeometry relative="1" as="geometry" />
        </mxCell>
        <mxCell id="T0ui_UV1t-J_ydkfwZPT-23" style="edgeStyle=orthogonalEdgeStyle;rounded=0;orthogonalLoop=1;jettySize=auto;html=1;endArrow=none;endFill=0;" edge="1" parent="1" source="T0ui_UV1t-J_ydkfwZPT-3" target="T0ui_UV1t-J_ydkfwZPT-22">
          <mxGeometry relative="1" as="geometry" />
        </mxCell>
        <mxCell id="T0ui_UV1t-J_ydkfwZPT-42" value="(0, n)" style="edgeStyle=orthogonalEdgeStyle;rounded=0;orthogonalLoop=1;jettySize=auto;html=1;entryX=1;entryY=0.5;entryDx=0;entryDy=0;endArrow=none;endFill=0;" edge="1" parent="1" source="T0ui_UV1t-J_ydkfwZPT-3" target="T0ui_UV1t-J_ydkfwZPT-39">
          <mxGeometry x="-0.5556" y="-10" relative="1" as="geometry">
            <mxPoint as="offset" />
          </mxGeometry>
        </mxCell>
        <mxCell id="T0ui_UV1t-J_ydkfwZPT-3" value="Rótulo" style="whiteSpace=wrap;html=1;align=center;" vertex="1" parent="1">
          <mxGeometry x="540" y="130" width="100" height="40" as="geometry" />
        </mxCell>
        <mxCell id="T0ui_UV1t-J_ydkfwZPT-4" value="Usuário" style="whiteSpace=wrap;html=1;align=center;" vertex="1" parent="1">
          <mxGeometry x="540" y="380" width="100" height="40" as="geometry" />
        </mxCell>
        <mxCell id="T0ui_UV1t-J_ydkfwZPT-5" value="Titulo" style="ellipse;whiteSpace=wrap;html=1;align=center;" vertex="1" parent="1">
          <mxGeometry x="80" y="-30" width="100" height="40" as="geometry" />
        </mxCell>
        <mxCell id="T0ui_UV1t-J_ydkfwZPT-6" value="Texto" style="ellipse;whiteSpace=wrap;html=1;align=center;" vertex="1" parent="1">
          <mxGeometry x="190" y="-30" width="100" height="40" as="geometry" />
        </mxCell>
        <mxCell id="T0ui_UV1t-J_ydkfwZPT-7" value="Data de Criação" style="ellipse;whiteSpace=wrap;html=1;align=center;" vertex="1" parent="1">
          <mxGeometry x="-30" y="-30" width="100" height="40" as="geometry" />
        </mxCell>
        <mxCell id="T0ui_UV1t-J_ydkfwZPT-8" value="Data de Alteração" style="ellipse;whiteSpace=wrap;html=1;align=center;" vertex="1" parent="1">
          <mxGeometry x="-100" y="40" width="100" height="40" as="geometry" />
        </mxCell>
        <mxCell id="T0ui_UV1t-J_ydkfwZPT-13" value="&lt;u&gt;Id&lt;/u&gt;" style="ellipse;whiteSpace=wrap;html=1;align=center;" vertex="1" parent="1">
          <mxGeometry x="-100" y="130" width="100" height="40" as="geometry" />
        </mxCell>
        <mxCell id="T0ui_UV1t-J_ydkfwZPT-17" value="Nome" style="ellipse;whiteSpace=wrap;html=1;align=center;" vertex="1" parent="1">
          <mxGeometry x="540" y="30" width="100" height="40" as="geometry" />
        </mxCell>
        <mxCell id="T0ui_UV1t-J_ydkfwZPT-18" value="Cor" style="ellipse;whiteSpace=wrap;html=1;align=center;" vertex="1" parent="1">
          <mxGeometry x="680" y="30" width="100" height="40" as="geometry" />
        </mxCell>
        <mxCell id="T0ui_UV1t-J_ydkfwZPT-22" value="&lt;u&gt;Id&lt;/u&gt;" style="ellipse;whiteSpace=wrap;html=1;align=center;" vertex="1" parent="1">
          <mxGeometry x="790" y="130" width="100" height="40" as="geometry" />
        </mxCell>
        <mxCell id="T0ui_UV1t-J_ydkfwZPT-24" value="Data e Hora" style="ellipse;whiteSpace=wrap;html=1;align=center;" vertex="1" parent="1">
          <mxGeometry x="-50" y="380" width="100" height="40" as="geometry" />
        </mxCell>
        <mxCell id="T0ui_UV1t-J_ydkfwZPT-25" value="Sinal Sonoro" style="ellipse;whiteSpace=wrap;html=1;align=center;" vertex="1" parent="1">
          <mxGeometry x="-50" y="460" width="100" height="40" as="geometry" />
        </mxCell>
        <mxCell id="T0ui_UV1t-J_ydkfwZPT-26" value="Sinal Visual" style="ellipse;whiteSpace=wrap;html=1;align=center;" vertex="1" parent="1">
          <mxGeometry x="-50" y="545" width="100" height="40" as="geometry" />
        </mxCell>
        <mxCell id="T0ui_UV1t-J_ydkfwZPT-27" value="Antecedência" style="ellipse;whiteSpace=wrap;html=1;align=center;" vertex="1" parent="1">
          <mxGeometry x="110" y="545" width="100" height="40" as="geometry" />
        </mxCell>
        <mxCell id="T0ui_UV1t-J_ydkfwZPT-33" style="edgeStyle=orthogonalEdgeStyle;rounded=0;orthogonalLoop=1;jettySize=auto;html=1;entryX=1;entryY=0.5;entryDx=0;entryDy=0;endArrow=none;endFill=0;exitX=0;exitY=0.5;exitDx=0;exitDy=0;" edge="1" parent="1" target="T0ui_UV1t-J_ydkfwZPT-34" source="T0ui_UV1t-J_ydkfwZPT-2">
          <mxGeometry relative="1" as="geometry">
            <mxPoint x="160" y="330" as="sourcePoint" />
          </mxGeometry>
        </mxCell>
        <mxCell id="T0ui_UV1t-J_ydkfwZPT-34" value="&lt;u&gt;Id&lt;/u&gt;" style="ellipse;whiteSpace=wrap;html=1;align=center;" vertex="1" parent="1">
          <mxGeometry x="-50" y="310" width="100" height="40" as="geometry" />
        </mxCell>
        <mxCell id="T0ui_UV1t-J_ydkfwZPT-35" value="&lt;u&gt;Login&lt;/u&gt;" style="ellipse;whiteSpace=wrap;html=1;align=center;" vertex="1" parent="1">
          <mxGeometry x="520" y="520" width="100" height="40" as="geometry" />
        </mxCell>
        <mxCell id="T0ui_UV1t-J_ydkfwZPT-36" value="Senha" style="ellipse;whiteSpace=wrap;html=1;align=center;" vertex="1" parent="1">
          <mxGeometry x="690" y="520" width="100" height="40" as="geometry" />
        </mxCell>
        <mxCell id="T0ui_UV1t-J_ydkfwZPT-37" style="edgeStyle=orthogonalEdgeStyle;rounded=0;orthogonalLoop=1;jettySize=auto;html=1;endArrow=none;endFill=0;exitX=0.5;exitY=1;exitDx=0;exitDy=0;entryX=0.5;entryY=0;entryDx=0;entryDy=0;" edge="1" parent="1" source="T0ui_UV1t-J_ydkfwZPT-4" target="T0ui_UV1t-J_ydkfwZPT-35">
          <mxGeometry relative="1" as="geometry">
            <mxPoint x="470" y="430" as="sourcePoint" />
            <mxPoint x="470" y="555" as="targetPoint" />
          </mxGeometry>
        </mxCell>
        <mxCell id="T0ui_UV1t-J_ydkfwZPT-38" style="edgeStyle=orthogonalEdgeStyle;rounded=0;orthogonalLoop=1;jettySize=auto;html=1;endArrow=none;endFill=0;exitX=0.5;exitY=1;exitDx=0;exitDy=0;entryX=0.5;entryY=0;entryDx=0;entryDy=0;" edge="1" parent="1" source="T0ui_UV1t-J_ydkfwZPT-4" target="T0ui_UV1t-J_ydkfwZPT-36">
          <mxGeometry relative="1" as="geometry">
            <mxPoint x="720" y="360" as="sourcePoint" />
            <mxPoint x="700" y="460" as="targetPoint" />
          </mxGeometry>
        </mxCell>
        <mxCell id="T0ui_UV1t-J_ydkfwZPT-39" value="Possui" style="shape=rhombus;perimeter=rhombusPerimeter;whiteSpace=wrap;html=1;align=center;" vertex="1" parent="1">
          <mxGeometry x="330" y="120" width="120" height="60" as="geometry" />
        </mxCell>
        <mxCell id="T0ui_UV1t-J_ydkfwZPT-43" value="Está vinculado a" style="shape=rhombus;perimeter=rhombusPerimeter;whiteSpace=wrap;html=1;align=center;" vertex="1" parent="1">
          <mxGeometry x="100" y="240" width="120" height="60" as="geometry" />
        </mxCell>
        <mxCell id="T0ui_UV1t-J_ydkfwZPT-44" value="(1, 1)" style="edgeStyle=orthogonalEdgeStyle;rounded=0;orthogonalLoop=1;jettySize=auto;html=1;endArrow=none;endFill=0;entryX=0.5;entryY=1;entryDx=0;entryDy=0;exitX=0.5;exitY=0;exitDx=0;exitDy=0;" edge="1" parent="1" source="T0ui_UV1t-J_ydkfwZPT-43" target="T0ui_UV1t-J_ydkfwZPT-1">
          <mxGeometry x="0.7143" y="-20" relative="1" as="geometry">
            <mxPoint x="230" y="280" as="sourcePoint" />
            <mxPoint x="310" y="160" as="targetPoint" />
            <Array as="points">
              <mxPoint x="160" y="230" />
              <mxPoint x="160" y="230" />
            </Array>
            <mxPoint as="offset" />
          </mxGeometry>
        </mxCell>
        <mxCell id="T0ui_UV1t-J_ydkfwZPT-45" value="(0, n)" style="edgeStyle=orthogonalEdgeStyle;rounded=0;orthogonalLoop=1;jettySize=auto;html=1;endArrow=none;endFill=0;entryX=0.5;entryY=1;entryDx=0;entryDy=0;exitX=0.5;exitY=0;exitDx=0;exitDy=0;" edge="1" parent="1" source="T0ui_UV1t-J_ydkfwZPT-2" target="T0ui_UV1t-J_ydkfwZPT-43">
          <mxGeometry x="-0.75" y="-20" relative="1" as="geometry">
            <mxPoint x="250" y="370" as="sourcePoint" />
            <mxPoint x="250" y="300" as="targetPoint" />
            <Array as="points">
              <mxPoint x="160" y="340" />
              <mxPoint x="160" y="340" />
            </Array>
            <mxPoint as="offset" />
          </mxGeometry>
        </mxCell>
        <mxCell id="T0ui_UV1t-J_ydkfwZPT-46" value="É de" style="shape=rhombus;perimeter=rhombusPerimeter;whiteSpace=wrap;html=1;align=center;" vertex="1" parent="1">
          <mxGeometry x="320" y="370" width="120" height="60" as="geometry" />
        </mxCell>
        <mxCell id="T0ui_UV1t-J_ydkfwZPT-50" value="(0, n)" style="edgeStyle=orthogonalEdgeStyle;rounded=0;orthogonalLoop=1;jettySize=auto;html=1;entryX=1;entryY=0.5;entryDx=0;entryDy=0;endArrow=none;endFill=0;" edge="1" parent="1" source="T0ui_UV1t-J_ydkfwZPT-47" target="T0ui_UV1t-J_ydkfwZPT-1">
          <mxGeometry x="0.7269" y="10" relative="1" as="geometry">
            <Array as="points">
              <mxPoint x="260" y="270" />
              <mxPoint x="260" y="160" />
              <mxPoint x="210" y="160" />
            </Array>
            <mxPoint x="1" as="offset" />
          </mxGeometry>
        </mxCell>
        <mxCell id="T0ui_UV1t-J_ydkfwZPT-51" value="(1, 1)" style="edgeStyle=orthogonalEdgeStyle;rounded=0;orthogonalLoop=1;jettySize=auto;html=1;endArrow=none;endFill=0;" edge="1" parent="1" source="T0ui_UV1t-J_ydkfwZPT-47" target="T0ui_UV1t-J_ydkfwZPT-4">
          <mxGeometry x="0.5998" y="-20" relative="1" as="geometry">
            <Array as="points">
              <mxPoint x="370" y="340" />
              <mxPoint x="590" y="340" />
            </Array>
            <mxPoint as="offset" />
          </mxGeometry>
        </mxCell>
        <mxCell id="T0ui_UV1t-J_ydkfwZPT-47" value="É de" style="shape=rhombus;perimeter=rhombusPerimeter;whiteSpace=wrap;html=1;align=center;" vertex="1" parent="1">
          <mxGeometry x="310" y="240" width="120" height="60" as="geometry" />
        </mxCell>
        <mxCell id="T0ui_UV1t-J_ydkfwZPT-54" value="(1, 1)" style="edgeStyle=orthogonalEdgeStyle;rounded=0;orthogonalLoop=1;jettySize=auto;html=1;entryX=1;entryY=0.5;entryDx=0;entryDy=0;endArrow=none;endFill=0;" edge="1" parent="1" source="T0ui_UV1t-J_ydkfwZPT-48" target="T0ui_UV1t-J_ydkfwZPT-4">
          <mxGeometry x="0.5709" y="20" relative="1" as="geometry">
            <mxPoint as="offset" />
          </mxGeometry>
        </mxCell>
        <mxCell id="T0ui_UV1t-J_ydkfwZPT-55" value="(0, n)" style="edgeStyle=orthogonalEdgeStyle;rounded=0;orthogonalLoop=1;jettySize=auto;html=1;entryX=0.5;entryY=1;entryDx=0;entryDy=0;endArrow=none;endFill=0;" edge="1" parent="1" source="T0ui_UV1t-J_ydkfwZPT-48" target="T0ui_UV1t-J_ydkfwZPT-3">
          <mxGeometry x="0.0835" y="-15" relative="1" as="geometry">
            <mxPoint as="offset" />
          </mxGeometry>
        </mxCell>
        <mxCell id="T0ui_UV1t-J_ydkfwZPT-48" value="É de" style="shape=rhombus;perimeter=rhombusPerimeter;whiteSpace=wrap;html=1;align=center;" vertex="1" parent="1">
          <mxGeometry x="580" y="240" width="120" height="60" as="geometry" />
        </mxCell>
        <mxCell id="T0ui_UV1t-J_ydkfwZPT-52" value="(1, 1)" style="edgeStyle=orthogonalEdgeStyle;rounded=0;orthogonalLoop=1;jettySize=auto;html=1;endArrow=none;endFill=0;exitX=1;exitY=0.5;exitDx=0;exitDy=0;entryX=0;entryY=0.5;entryDx=0;entryDy=0;" edge="1" parent="1" source="T0ui_UV1t-J_ydkfwZPT-46" target="T0ui_UV1t-J_ydkfwZPT-4">
          <mxGeometry x="0.6" y="-10" relative="1" as="geometry">
            <mxPoint x="380" y="310" as="sourcePoint" />
            <mxPoint x="600" y="390" as="targetPoint" />
            <Array as="points">
              <mxPoint x="490" y="400" />
              <mxPoint x="490" y="400" />
            </Array>
            <mxPoint as="offset" />
          </mxGeometry>
        </mxCell>
        <mxCell id="T0ui_UV1t-J_ydkfwZPT-53" value="(0, n)" style="edgeStyle=orthogonalEdgeStyle;rounded=0;orthogonalLoop=1;jettySize=auto;html=1;entryX=1;entryY=0.5;entryDx=0;entryDy=0;endArrow=none;endFill=0;exitX=0;exitY=0.5;exitDx=0;exitDy=0;" edge="1" parent="1" source="T0ui_UV1t-J_ydkfwZPT-46" target="T0ui_UV1t-J_ydkfwZPT-2">
          <mxGeometry x="0.6364" y="10" relative="1" as="geometry">
            <mxPoint x="290.05" y="400" as="sourcePoint" />
            <mxPoint x="190.05" y="280" as="targetPoint" />
            <Array as="points">
              <mxPoint x="220" y="400" />
              <mxPoint x="220" y="400" />
            </Array>
            <mxPoint x="1" as="offset" />
          </mxGeometry>
        </mxCell>
        <mxCell id="T0ui_UV1t-J_ydkfwZPT-69" value="" style="shape=tableRow;horizontal=0;startSize=0;swimlaneHead=0;swimlaneBody=0;fillColor=none;collapsible=0;dropTarget=0;points=[[0,0.5],[1,0.5]];portConstraint=eastwest;top=0;left=0;right=0;bottom=0;" vertex="1" parent="1">
          <mxGeometry x="-330" y="330" width="180" height="30" as="geometry" />
        </mxCell>
        <mxCell id="T0ui_UV1t-J_ydkfwZPT-70" value="" style="shape=partialRectangle;connectable=0;fillColor=none;top=0;left=0;bottom=0;right=0;editable=1;overflow=hidden;whiteSpace=wrap;html=1;" vertex="1" parent="T0ui_UV1t-J_ydkfwZPT-69">
          <mxGeometry width="30" height="30" as="geometry">
            <mxRectangle width="30" height="30" as="alternateBounds" />
          </mxGeometry>
        </mxCell>
      </root>
    </mxGraphModel>
  </diagram>
</mxfile>
